<svg width="236" height="66" viewBox="0 0 236 66" fill="none" xmlns="http://www.w3.org/2000/svg">
<path d="M22.8036 41.582C23.0351 42.244 23.3164 42.9067 23.6489 43.5632C23.9805 44.2202 24.3588 44.8739 24.7902 45.5145C24.8983 45.6746 25.0105 45.8329 25.1266 45.99C25.234 46.1415 25.3805 46.3244 25.5048 46.4849L25.6577 46.6788L25.696 46.7273L25.7152 46.7516L25.7628 46.8058L25.8572 46.9163C25.9846 47.0631 26.1123 47.2104 26.2405 47.3581C27.2875 48.5215 28.5077 49.5887 29.8623 50.5078C30.541 50.964 31.2512 51.3875 31.9877 51.771C32.1486 51.853 32.3113 51.9325 32.4745 52.011C33.1356 51.8234 33.7866 51.6225 34.4236 51.4052L35.3476 51.0929L35.824 50.9162C35.9902 50.8548 36.1341 50.8013 36.2494 50.7537L36.4119 50.6887C36.6682 50.5866 36.9104 50.4899 37.1539 50.3842L37.1836 50.3717C37.4782 50.25 37.7814 50.1136 38.0651 49.9842C39.2905 49.426 40.4462 48.8122 41.5008 48.1591C41.7542 48.0034 42.0054 47.8416 42.2547 47.6746C40.2492 47.5114 38.3146 47.1204 36.5329 46.5169C34.2135 45.7355 32.1517 44.5916 30.5004 43.1376C30.3987 43.0451 30.2974 42.9529 30.1964 42.861L30.1198 42.7927C30.1242 42.7988 30.0829 42.7549 30.1248 42.8021L30.1027 42.7805L30.0587 42.737L29.8828 42.5638C29.7953 42.4741 29.7245 42.4128 29.6294 42.3093C29.538 42.2155 29.4506 42.1182 29.3623 42.0217C29.0086 41.6358 28.6821 41.2266 28.3826 40.803C27.7896 39.9525 27.2757 39.057 26.8865 38.1389C26.0796 36.3092 25.6862 34.4407 25.5831 32.7588C25.4733 31.0712 25.6737 29.5675 25.9833 28.3483C26.294 27.1265 26.7183 26.1902 27.041 25.5634C27.2025 25.2492 27.3403 25.0123 27.4329 24.8512C27.5282 24.6911 27.5773 24.6085 27.5773 24.6085L28.4533 23.2562L27.1138 24.1624C27.1138 24.1624 27.0308 24.2212 26.8702 24.335C26.7094 24.4501 26.4777 24.6294 26.1854 24.8815C25.6041 25.3852 24.7918 26.2064 23.9944 27.4605C23.1979 28.7088 22.45 30.4068 22.0531 32.4864C21.6573 34.5608 21.6273 37.0125 22.2243 39.6152C22.3748 40.2648 22.5693 40.9212 22.8036 41.582Z" fill="#FA1239"/>
<path d="M71.8086 19.5377C71.5846 18.4642 71.318 17.4614 71.0316 16.5331C70.7564 15.6454 70.4642 14.8276 70.1674 14.078L75.7059 15.2467L63.712 0L65.1741 20.4354L68.7137 14.5628C68.9065 15.3052 69.0877 16.1078 69.2399 16.9708C69.4012 17.875 69.531 18.8422 69.6182 19.8619C69.7078 20.8812 69.7541 21.9539 69.7327 23.0675C69.6978 25.2938 69.3844 27.6852 68.7084 30.0893C68.0261 32.4906 66.9587 34.8967 65.4741 37.1202L65.1919 37.5354L64.9012 37.9467L64.6002 38.3578C64.4869 38.518 64.3951 38.6264 64.2978 38.7502L64.1534 38.933L63.9954 39.1223C63.8874 39.2481 63.7856 39.3786 63.6728 39.5011L63.3397 39.8733L62.9942 40.2365C62.0563 41.1927 61.0211 42.0808 59.8887 42.8683C58.9122 43.5524 57.8714 44.1701 56.7827 44.7169C55.86 46.2371 54.8403 47.6231 53.7465 48.8369L53.5773 49.0218C53.3381 49.2836 53.0907 49.5543 52.7982 49.8414L52.3683 50.2713L51.6075 50.9715L50.8462 51.6239L50.8168 51.6471C50.7158 51.7264 50.6156 51.8068 50.5153 51.8874C50.29 52.0684 50.0569 52.2557 49.804 52.4402C49.2494 52.8558 48.6786 53.2522 48.0957 53.6298C48.1254 53.6232 48.1539 53.6175 48.184 53.6105L48.5188 53.5363C48.625 53.5118 48.7089 53.4879 48.805 53.4634L49.416 53.3031C50.2133 53.084 51.0056 52.8365 51.7922 52.5697C52.5793 52.304 53.3619 52.0204 54.134 51.7049C57.2177 50.449 60.2116 48.8565 62.8222 46.7619C64.1298 45.7235 65.3331 44.5591 66.3991 43.301L66.7924 42.8249L67.1706 42.3386C67.2977 42.1781 67.414 42.0088 67.5354 41.8447L67.7154 41.5948L67.8961 41.3302C68.0146 41.1553 68.1436 40.9695 68.2323 40.8229C68.337 40.6559 68.4415 40.4891 68.5458 40.3227C68.7478 39.9823 68.9433 39.6403 69.1297 39.2951C69.8706 37.9117 70.4825 36.4939 70.9668 35.074C71.4492 33.6529 71.8 32.2296 72.0422 30.8352C72.2867 29.4408 72.4114 28.0729 72.4472 26.755C72.4845 25.4369 72.4348 24.1681 72.3191 22.9619C72.2064 21.7559 72.0266 20.6119 71.8086 19.5377Z" fill="#FA1239"/>
<g filter="url(#filter0_d_2_158)">
<mask id="path-3-inside-1_2_158" fill="white">
<path d="M58.2212 33.9399C58.2686 33.602 58.2115 33.2649 58.2046 32.9285C58.1857 32.7105 58.1466 32.4929 58.1279 32.2756C58.1089 32.0582 58.0884 31.841 58.0651 31.6245C58.0372 31.4091 57.9959 31.1969 57.9611 30.9834C57.924 30.7703 57.887 30.5576 57.85 30.3453C57.8159 30.132 57.7507 29.9278 57.7018 29.7193C57.5922 29.306 57.5006 28.8875 57.3556 28.4896C57.0946 27.6828 56.7771 26.905 56.4163 26.1578C56.2244 25.79 56.0399 25.4206 55.8397 25.0628C55.6222 24.715 55.4058 24.3691 55.1906 24.0249C54.2823 22.679 53.2144 21.488 52.0497 20.4721C50.8854 19.4566 49.625 18.6088 48.3087 17.9796L48.0655 17.8582L48.0048 17.8282L47.8763 17.7626L47.8499 17.7522L47.7444 17.7106C47.6039 17.6553 47.4638 17.6001 47.3244 17.5452C47.1851 17.4904 47.0463 17.4358 46.9083 17.3814L46.8026 17.3403L46.6686 17.2941L46.4014 17.2032C46.2239 17.1442 46.0472 17.0855 45.8714 17.0271C45.6977 16.9731 45.5169 16.9054 45.3516 16.8677C45.0228 16.7923 44.6972 16.7177 44.3751 16.6438C43.0832 16.3917 41.8377 16.2649 40.6642 16.3014C40.5182 16.3029 40.3729 16.3041 40.2286 16.3054C40.0847 16.3168 39.9417 16.3279 39.7996 16.339C39.5175 16.363 39.2393 16.3866 38.9649 16.4099C38.42 16.4913 37.8936 16.5558 37.3934 16.6758C35.3853 17.1089 33.7639 17.842 32.5416 18.5749C32.3899 18.6681 32.2422 18.7588 32.0987 18.847C32.0277 18.8912 31.9577 18.9348 31.8887 18.9776C31.8225 19.0259 31.7572 19.0737 31.693 19.1205C31.4401 19.3077 31.2031 19.4832 30.9826 19.6465C30.5608 19.9987 30.218 20.3085 29.9492 20.5648C29.4329 21.1105 29.1801 21.4052 29.1801 21.4052L28.3858 22.4142L29.5693 21.9174C29.5693 21.9174 29.932 21.7812 30.5694 21.5186C30.7304 21.4558 30.9198 21.4027 31.1186 21.3331C31.3202 21.2681 31.5315 21.1855 31.7702 21.12C32.0071 21.0564 32.2616 20.988 32.5333 20.915C32.6003 20.8971 32.6684 20.879 32.7375 20.8605C32.8083 20.8464 32.8801 20.8319 32.953 20.8173C33.0973 20.7878 33.2457 20.7574 33.3982 20.7262C34.6145 20.4885 36.096 20.3418 37.7377 20.4298C37.942 20.4309 38.1506 20.4615 38.3602 20.4835C38.5697 20.5046 38.7813 20.521 38.9946 20.5454C39.2065 20.5807 39.4215 20.6165 39.6394 20.6529C39.7473 20.6708 39.8561 20.6889 39.9655 20.707C40.0736 20.732 40.1825 20.7571 40.292 20.7824C40.5104 20.8325 40.731 20.8776 40.9518 20.9307C41.1691 20.9958 41.3891 21.0617 41.6116 21.1284C41.8346 21.1875 42.0519 21.2725 42.2719 21.3518C42.3817 21.3913 42.492 21.4309 42.6029 21.4708L42.7691 21.53L42.931 21.6033C43.1461 21.6992 43.3634 21.7962 43.5829 21.894C43.7849 21.9959 43.9617 22.0981 44.1541 22.1952L44.2961 22.2679L44.3674 22.3039L44.4612 22.3593C44.5886 22.4354 44.7167 22.5118 44.8452 22.5886C44.9738 22.6652 45.1029 22.7424 45.2326 22.8199L45.33 22.8781L45.3544 22.8927C45.1644 22.7961 45.3124 22.8739 45.2747 22.8558L45.3115 22.8835L45.4595 22.9938C46.2712 23.5399 47.0277 24.2266 47.7281 24.9935C48.4281 25.7622 49.0648 26.6266 49.6193 27.5649C50.1702 28.5058 50.6329 29.5218 50.9884 30.5853C51.0944 30.8467 51.1563 31.1204 51.238 31.3906C51.325 31.6603 51.3806 31.936 51.4436 32.2123C51.4737 32.3504 51.5115 32.4884 51.5372 32.6276C51.5566 32.7676 51.579 32.9073 51.6029 33.0474L51.6756 33.4691L51.7105 33.8344L51.7595 34.2022C51.7612 34.2193 51.765 34.2294 51.7652 34.2521L51.7662 34.3203L51.7681 34.457L51.7719 34.7305L51.7823 35.2786L51.7838 35.3473L51.7847 35.3816C51.7968 35.1468 51.7874 35.3322 51.7898 35.287L51.786 35.3968L51.7788 35.6168C51.7717 36.2057 51.6916 36.8002 51.6055 37.4017C51.3994 38.6008 51.0378 39.8153 50.5116 40.9901C50.2421 41.5743 49.9558 42.1598 49.6074 42.7155C49.4477 43.002 49.2544 43.269 49.0754 43.5455C48.9838 43.6827 48.8824 43.8132 48.7866 43.9478C48.6879 44.0803 48.5966 44.2187 48.4906 44.3462C48.2841 44.6035 48.0762 44.8746 47.8751 45.0994L47.7235 45.2768L47.6479 45.3658L47.6097 45.4107L47.5613 45.4618L47.1741 45.8711L47.0774 45.9733L47.029 46.0244L47.0049 46.05C47.0689 45.9884 47.0097 46.0456 47.0182 46.0375L46.8384 46.2143L46.4793 46.5689C46.2278 46.7939 45.9872 47.0305 45.727 47.2476C44.7008 48.1303 43.5982 48.9428 42.43 49.6612C41.2643 50.3829 40.0449 51.0232 38.7973 51.5916C38.4855 51.7338 38.1733 51.874 37.8571 52.0046C37.5403 52.1422 37.232 52.263 36.9234 52.3865C36.7743 52.4481 36.6062 52.5104 36.4375 52.5725C36.2703 52.6346 36.1034 52.6965 35.9369 52.7584C35.6209 52.8651 35.3063 52.9716 34.993 53.0775C32.4383 53.9486 29.871 54.5349 27.4004 54.9089C24.9283 55.2811 22.5504 55.4203 20.3514 55.4016C20.0762 55.3974 19.804 55.3932 19.5347 55.3891C19.3998 55.3871 19.2658 55.3851 19.1324 55.3831C18.9994 55.3762 18.8672 55.3692 18.7356 55.3623C18.2083 55.3342 17.6932 55.3069 17.191 55.2801C16.1912 55.1799 15.2347 55.1083 14.3464 54.9656C12.56 54.7302 11.0222 54.3843 9.7541 54.0947C8.50217 53.7734 7.51951 53.5017 6.84536 53.2738C6.17251 53.0608 5.81371 52.9471 5.81371 52.9471L4 52.3483L5.5813 53.547C5.5813 53.547 5.92302 53.7047 6.56383 54.0005C7.19322 54.3082 8.16762 54.702 9.41815 55.1865C9.73266 55.2975 10.0641 55.4143 10.4116 55.5369C10.7601 55.6583 11.1225 55.795 11.51 55.904C11.8962 56.0196 12.2983 56.1398 12.7153 56.2646C12.8197 56.2957 12.9252 56.327 13.0315 56.3587C13.139 56.3859 13.2473 56.4132 13.3565 56.4409C13.5754 56.4962 13.7979 56.5525 14.0241 56.6096C14.9264 56.856 15.9033 57.0384 16.9331 57.2546C17.452 57.3392 17.9843 57.4259 18.5291 57.5147C18.6656 57.5365 18.8031 57.5584 18.9411 57.5803C19.0799 57.5962 19.2195 57.6123 19.3598 57.6284C19.6408 57.6606 19.925 57.6931 20.2121 57.7259C22.5113 57.9728 25.031 58.0754 27.6995 57.9395C30.3676 57.8077 33.1805 57.4158 36.0416 56.7306C36.2203 56.6869 36.3993 56.6432 36.5787 56.5993L36.8482 56.5333L36.9832 56.5002L37.0507 56.4836C37.0704 56.478 37.0544 56.4841 37.1035 56.4691L37.1355 56.4601C37.3067 56.4125 37.4782 56.3649 37.6501 56.3172C37.8208 56.2703 37.9924 56.2229 38.1802 56.1643C38.5473 56.0534 38.9185 55.9423 39.2746 55.8225C39.6357 55.7077 39.9955 55.5818 40.356 55.4532C41.8003 54.9441 43.235 54.3175 44.6471 53.5884C46.0606 52.8624 47.4396 52.0045 48.7525 51.0196C49.0841 50.7785 49.3999 50.5124 49.7244 50.2576L50.1961 49.8539L50.4319 49.6513L50.6783 49.4244L51.0928 49.0428L51.1447 48.9951L51.2029 48.9373L51.3196 48.8207L51.5528 48.5867C51.8745 48.2716 52.147 47.9648 52.4325 47.6543C53.5588 46.4045 54.5499 45.022 55.4226 43.5514C55.8463 42.8083 56.2442 42.0454 56.5825 41.2495C56.938 40.4618 57.2187 39.6364 57.4756 38.8028C57.7065 37.9605 57.9092 37.1057 58.0254 36.2328L58.0721 35.9061L58.0955 35.7427L58.1168 35.4772L58.1625 34.9308L58.1859 34.6581L58.2015 34.5219L58.2169 34.4538C58.2188 34.4299 58.2409 34.392 58.2385 34.3629C58.2334 34.2204 58.2274 34.0824 58.2212 33.9399Z"/>
</mask>
<path d="M58.2212 33.9399C58.2686 33.602 58.2115 33.2649 58.2046 32.9285C58.1857 32.7105 58.1466 32.4929 58.1279 32.2756C58.1089 32.0582 58.0884 31.841 58.0651 31.6245C58.0372 31.4091 57.9959 31.1969 57.9611 30.9834C57.924 30.7703 57.887 30.5576 57.85 30.3453C57.8159 30.132 57.7507 29.9278 57.7018 29.7193C57.5922 29.306 57.5006 28.8875 57.3556 28.4896C57.0946 27.6828 56.7771 26.905 56.4163 26.1578C56.2244 25.79 56.0399 25.4206 55.8397 25.0628C55.6222 24.715 55.4058 24.3691 55.1906 24.0249C54.2823 22.679 53.2144 21.488 52.0497 20.4721C50.8854 19.4566 49.625 18.6088 48.3087 17.9796L48.0655 17.8582L48.0048 17.8282L47.8763 17.7626L47.8499 17.7522L47.7444 17.7106C47.6039 17.6553 47.4638 17.6001 47.3244 17.5452C47.1851 17.4904 47.0463 17.4358 46.9083 17.3814L46.8026 17.3403L46.6686 17.2941L46.4014 17.2032C46.2239 17.1442 46.0472 17.0855 45.8714 17.0271C45.6977 16.9731 45.5169 16.9054 45.3516 16.8677C45.0228 16.7923 44.6972 16.7177 44.3751 16.6438C43.0832 16.3917 41.8377 16.2649 40.6642 16.3014C40.5182 16.3029 40.3729 16.3041 40.2286 16.3054C40.0847 16.3168 39.9417 16.3279 39.7996 16.339C39.5175 16.363 39.2393 16.3866 38.9649 16.4099C38.42 16.4913 37.8936 16.5558 37.3934 16.6758C35.3853 17.1089 33.7639 17.842 32.5416 18.5749C32.3899 18.6681 32.2422 18.7588 32.0987 18.847C32.0277 18.8912 31.9577 18.9348 31.8887 18.9776C31.8225 19.0259 31.7572 19.0737 31.693 19.1205C31.4401 19.3077 31.2031 19.4832 30.9826 19.6465C30.5608 19.9987 30.218 20.3085 29.9492 20.5648C29.4329 21.1105 29.1801 21.4052 29.1801 21.4052L28.3858 22.4142L29.5693 21.9174C29.5693 21.9174 29.932 21.7812 30.5694 21.5186C30.7304 21.4558 30.9198 21.4027 31.1186 21.3331C31.3202 21.2681 31.5315 21.1855 31.7702 21.12C32.0071 21.0564 32.2616 20.988 32.5333 20.915C32.6003 20.8971 32.6684 20.879 32.7375 20.8605C32.8083 20.8464 32.8801 20.8319 32.953 20.8173C33.0973 20.7878 33.2457 20.7574 33.3982 20.7262C34.6145 20.4885 36.096 20.3418 37.7377 20.4298C37.942 20.4309 38.1506 20.4615 38.3602 20.4835C38.5697 20.5046 38.7813 20.521 38.9946 20.5454C39.2065 20.5807 39.4215 20.6165 39.6394 20.6529C39.7473 20.6708 39.8561 20.6889 39.9655 20.707C40.0736 20.732 40.1825 20.7571 40.292 20.7824C40.5104 20.8325 40.731 20.8776 40.9518 20.9307C41.1691 20.9958 41.3891 21.0617 41.6116 21.1284C41.8346 21.1875 42.0519 21.2725 42.2719 21.3518C42.3817 21.3913 42.492 21.4309 42.6029 21.4708L42.7691 21.53L42.931 21.6033C43.1461 21.6992 43.3634 21.7962 43.5829 21.894C43.7849 21.9959 43.9617 22.0981 44.1541 22.1952L44.2961 22.2679L44.3674 22.3039L44.4612 22.3593C44.5886 22.4354 44.7167 22.5118 44.8452 22.5886C44.9738 22.6652 45.1029 22.7424 45.2326 22.8199L45.33 22.8781L45.3544 22.8927C45.1644 22.7961 45.3124 22.8739 45.2747 22.8558L45.3115 22.8835L45.4595 22.9938C46.2712 23.5399 47.0277 24.2266 47.7281 24.9935C48.4281 25.7622 49.0648 26.6266 49.6193 27.5649C50.1702 28.5058 50.6329 29.5218 50.9884 30.5853C51.0944 30.8467 51.1563 31.1204 51.238 31.3906C51.325 31.6603 51.3806 31.936 51.4436 32.2123C51.4737 32.3504 51.5115 32.4884 51.5372 32.6276C51.5566 32.7676 51.579 32.9073 51.6029 33.0474L51.6756 33.4691L51.7105 33.8344L51.7595 34.2022C51.7612 34.2193 51.765 34.2294 51.7652 34.2521L51.7662 34.3203L51.7681 34.457L51.7719 34.7305L51.7823 35.2786L51.7838 35.3473L51.7847 35.3816C51.7968 35.1468 51.7874 35.3322 51.7898 35.287L51.786 35.3968L51.7788 35.6168C51.7717 36.2057 51.6916 36.8002 51.6055 37.4017C51.3994 38.6008 51.0378 39.8153 50.5116 40.9901C50.2421 41.5743 49.9558 42.1598 49.6074 42.7155C49.4477 43.002 49.2544 43.269 49.0754 43.5455C48.9838 43.6827 48.8824 43.8132 48.7866 43.9478C48.6879 44.0803 48.5966 44.2187 48.4906 44.3462C48.2841 44.6035 48.0762 44.8746 47.8751 45.0994L47.7235 45.2768L47.6479 45.3658L47.6097 45.4107L47.5613 45.4618L47.1741 45.8711L47.0774 45.9733L47.029 46.0244L47.0049 46.05C47.0689 45.9884 47.0097 46.0456 47.0182 46.0375L46.8384 46.2143L46.4793 46.5689C46.2278 46.7939 45.9872 47.0305 45.727 47.2476C44.7008 48.1303 43.5982 48.9428 42.43 49.6612C41.2643 50.3829 40.0449 51.0232 38.7973 51.5916C38.4855 51.7338 38.1733 51.874 37.8571 52.0046C37.5403 52.1422 37.232 52.263 36.9234 52.3865C36.7743 52.4481 36.6062 52.5104 36.4375 52.5725C36.2703 52.6346 36.1034 52.6965 35.9369 52.7584C35.6209 52.8651 35.3063 52.9716 34.993 53.0775C32.4383 53.9486 29.871 54.5349 27.4004 54.9089C24.9283 55.2811 22.5504 55.4203 20.3514 55.4016C20.0762 55.3974 19.804 55.3932 19.5347 55.3891C19.3998 55.3871 19.2658 55.3851 19.1324 55.3831C18.9994 55.3762 18.8672 55.3692 18.7356 55.3623C18.2083 55.3342 17.6932 55.3069 17.191 55.2801C16.1912 55.1799 15.2347 55.1083 14.3464 54.9656C12.56 54.7302 11.0222 54.3843 9.7541 54.0947C8.50217 53.7734 7.51951 53.5017 6.84536 53.2738C6.17251 53.0608 5.81371 52.9471 5.81371 52.9471L4 52.3483L5.5813 53.547C5.5813 53.547 5.92302 53.7047 6.56383 54.0005C7.19322 54.3082 8.16762 54.702 9.41815 55.1865C9.73266 55.2975 10.0641 55.4143 10.4116 55.5369C10.7601 55.6583 11.1225 55.795 11.51 55.904C11.8962 56.0196 12.2983 56.1398 12.7153 56.2646C12.8197 56.2957 12.9252 56.327 13.0315 56.3587C13.139 56.3859 13.2473 56.4132 13.3565 56.4409C13.5754 56.4962 13.7979 56.5525 14.0241 56.6096C14.9264 56.856 15.9033 57.0384 16.9331 57.2546C17.452 57.3392 17.9843 57.4259 18.5291 57.5147C18.6656 57.5365 18.8031 57.5584 18.9411 57.5803C19.0799 57.5962 19.2195 57.6123 19.3598 57.6284C19.6408 57.6606 19.925 57.6931 20.2121 57.7259C22.5113 57.9728 25.031 58.0754 27.6995 57.9395C30.3676 57.8077 33.1805 57.4158 36.0416 56.7306C36.2203 56.6869 36.3993 56.6432 36.5787 56.5993L36.8482 56.5333L36.9832 56.5002L37.0507 56.4836C37.0704 56.478 37.0544 56.4841 37.1035 56.4691L37.1355 56.4601C37.3067 56.4125 37.4782 56.3649 37.6501 56.3172C37.8208 56.2703 37.9924 56.2229 38.1802 56.1643C38.5473 56.0534 38.9185 55.9423 39.2746 55.8225C39.6357 55.7077 39.9955 55.5818 40.356 55.4532C41.8003 54.9441 43.235 54.3175 44.6471 53.5884C46.0606 52.8624 47.4396 52.0045 48.7525 51.0196C49.0841 50.7785 49.3999 50.5124 49.7244 50.2576L50.1961 49.8539L50.4319 49.6513L50.6783 49.4244L51.0928 49.0428L51.1447 48.9951L51.2029 48.9373L51.3196 48.8207L51.5528 48.5867C51.8745 48.2716 52.147 47.9648 52.4325 47.6543C53.5588 46.4045 54.5499 45.022 55.4226 43.5514C55.8463 42.8083 56.2442 42.0454 56.5825 41.2495C56.938 40.4618 57.2187 39.6364 57.4756 38.8028C57.7065 37.9605 57.9092 37.1057 58.0254 36.2328L58.0721 35.9061L58.0955 35.7427L58.1168 35.4772L58.1625 34.9308L58.1859 34.6581L58.2015 34.5219L58.2169 34.4538C58.2188 34.4299 58.2409 34.392 58.2385 34.3629C58.2334 34.2204 58.2274 34.0824 58.2212 33.9399Z" fill="#FA1239"/>
<path d="M58.2212 33.9399C58.2686 33.602 58.2115 33.2649 58.2046 32.9285C58.1857 32.7105 58.1466 32.4929 58.1279 32.2756C58.1089 32.0582 58.0884 31.841 58.0651 31.6245C58.0372 31.4091 57.9959 31.1969 57.9611 30.9834C57.924 30.7703 57.887 30.5576 57.85 30.3453C57.8159 30.132 57.7507 29.9278 57.7018 29.7193C57.5922 29.306 57.5006 28.8875 57.3556 28.4896C57.0946 27.6828 56.7771 26.905 56.4163 26.1578C56.2244 25.79 56.0399 25.4206 55.8397 25.0628C55.6222 24.715 55.4058 24.3691 55.1906 24.0249C54.2823 22.679 53.2144 21.488 52.0497 20.4721C50.8854 19.4566 49.625 18.6088 48.3087 17.9796L48.0655 17.8582L48.0048 17.8282L47.8763 17.7626L47.8499 17.7522L47.7444 17.7106C47.6039 17.6553 47.4638 17.6001 47.3244 17.5452C47.1851 17.4904 47.0463 17.4358 46.9083 17.3814L46.8026 17.3403L46.6686 17.2941L46.4014 17.2032C46.2239 17.1442 46.0472 17.0855 45.8714 17.0271C45.6977 16.9731 45.5169 16.9054 45.3516 16.8677C45.0228 16.7923 44.6972 16.7177 44.3751 16.6438C43.0832 16.3917 41.8377 16.2649 40.6642 16.3014C40.5182 16.3029 40.3729 16.3041 40.2286 16.3054C40.0847 16.3168 39.9417 16.3279 39.7996 16.339C39.5175 16.363 39.2393 16.3866 38.9649 16.4099C38.42 16.4913 37.8936 16.5558 37.3934 16.6758C35.3853 17.1089 33.7639 17.842 32.5416 18.5749C32.3899 18.6681 32.2422 18.7588 32.0987 18.847C32.0277 18.8912 31.9577 18.9348 31.8887 18.9776C31.8225 19.0259 31.7572 19.0737 31.693 19.1205C31.4401 19.3077 31.2031 19.4832 30.9826 19.6465C30.5608 19.9987 30.218 20.3085 29.9492 20.5648C29.4329 21.1105 29.1801 21.4052 29.1801 21.4052L28.3858 22.4142L29.5693 21.9174C29.5693 21.9174 29.932 21.7812 30.5694 21.5186C30.7304 21.4558 30.9198 21.4027 31.1186 21.3331C31.3202 21.2681 31.5315 21.1855 31.7702 21.12C32.0071 21.0564 32.2616 20.988 32.5333 20.915C32.6003 20.8971 32.6684 20.879 32.7375 20.8605C32.8083 20.8464 32.8801 20.8319 32.953 20.8173C33.0973 20.7878 33.2457 20.7574 33.3982 20.7262C34.6145 20.4885 36.096 20.3418 37.7377 20.4298C37.942 20.4309 38.1506 20.4615 38.3602 20.4835C38.5697 20.5046 38.7813 20.521 38.9946 20.5454C39.2065 20.5807 39.4215 20.6165 39.6394 20.6529C39.7473 20.6708 39.8561 20.6889 39.9655 20.707C40.0736 20.732 40.1825 20.7571 40.292 20.7824C40.5104 20.8325 40.731 20.8776 40.9518 20.9307C41.1691 20.9958 41.3891 21.0617 41.6116 21.1284C41.8346 21.1875 42.0519 21.2725 42.2719 21.3518C42.3817 21.3913 42.492 21.4309 42.6029 21.4708L42.7691 21.53L42.931 21.6033C43.1461 21.6992 43.3634 21.7962 43.5829 21.894C43.7849 21.9959 43.9617 22.0981 44.1541 22.1952L44.2961 22.2679L44.3674 22.3039L44.4612 22.3593C44.5886 22.4354 44.7167 22.5118 44.8452 22.5886C44.9738 22.6652 45.1029 22.7424 45.2326 22.8199L45.33 22.8781L45.3544 22.8927C45.1644 22.7961 45.3124 22.8739 45.2747 22.8558L45.3115 22.8835L45.4595 22.9938C46.2712 23.5399 47.0277 24.2266 47.7281 24.9935C48.4281 25.7622 49.0648 26.6266 49.6193 27.5649C50.1702 28.5058 50.6329 29.5218 50.9884 30.5853C51.0944 30.8467 51.1563 31.1204 51.238 31.3906C51.325 31.6603 51.3806 31.936 51.4436 32.2123C51.4737 32.3504 51.5115 32.4884 51.5372 32.6276C51.5566 32.7676 51.579 32.9073 51.6029 33.0474L51.6756 33.4691L51.7105 33.8344L51.7595 34.2022C51.7612 34.2193 51.765 34.2294 51.7652 34.2521L51.7662 34.3203L51.7681 34.457L51.7719 34.7305L51.7823 35.2786L51.7838 35.3473L51.7847 35.3816C51.7968 35.1468 51.7874 35.3322 51.7898 35.287L51.786 35.3968L51.7788 35.6168C51.7717 36.2057 51.6916 36.8002 51.6055 37.4017C51.3994 38.6008 51.0378 39.8153 50.5116 40.9901C50.2421 41.5743 49.9558 42.1598 49.6074 42.7155C49.4477 43.002 49.2544 43.269 49.0754 43.5455C48.9838 43.6827 48.8824 43.8132 48.7866 43.9478C48.6879 44.0803 48.5966 44.2187 48.4906 44.3462C48.2841 44.6035 48.0762 44.8746 47.8751 45.0994L47.7235 45.2768L47.6479 45.3658L47.6097 45.4107L47.5613 45.4618L47.1741 45.8711L47.0774 45.9733L47.029 46.0244L47.0049 46.05C47.0689 45.9884 47.0097 46.0456 47.0182 46.0375L46.8384 46.2143L46.4793 46.5689C46.2278 46.7939 45.9872 47.0305 45.727 47.2476C44.7008 48.1303 43.5982 48.9428 42.43 49.6612C41.2643 50.3829 40.0449 51.0232 38.7973 51.5916C38.4855 51.7338 38.1733 51.874 37.8571 52.0046C37.5403 52.1422 37.232 52.263 36.9234 52.3865C36.7743 52.4481 36.6062 52.5104 36.4375 52.5725C36.2703 52.6346 36.1034 52.6965 35.9369 52.7584C35.6209 52.8651 35.3063 52.9716 34.993 53.0775C32.4383 53.9486 29.871 54.5349 27.4004 54.9089C24.9283 55.2811 22.5504 55.4203 20.3514 55.4016C20.0762 55.3974 19.804 55.3932 19.5347 55.3891C19.3998 55.3871 19.2658 55.3851 19.1324 55.3831C18.9994 55.3762 18.8672 55.3692 18.7356 55.3623C18.2083 55.3342 17.6932 55.3069 17.191 55.2801C16.1912 55.1799 15.2347 55.1083 14.3464 54.9656C12.56 54.7302 11.0222 54.3843 9.7541 54.0947C8.50217 53.7734 7.51951 53.5017 6.84536 53.2738C6.17251 53.0608 5.81371 52.9471 5.81371 52.9471L4 52.3483L5.5813 53.547C5.5813 53.547 5.92302 53.7047 6.56383 54.0005C7.19322 54.3082 8.16762 54.702 9.41815 55.1865C9.73266 55.2975 10.0641 55.4143 10.4116 55.5369C10.7601 55.6583 11.1225 55.795 11.51 55.904C11.8962 56.0196 12.2983 56.1398 12.7153 56.2646C12.8197 56.2957 12.9252 56.327 13.0315 56.3587C13.139 56.3859 13.2473 56.4132 13.3565 56.4409C13.5754 56.4962 13.7979 56.5525 14.0241 56.6096C14.9264 56.856 15.9033 57.0384 16.9331 57.2546C17.452 57.3392 17.9843 57.4259 18.5291 57.5147C18.6656 57.5365 18.8031 57.5584 18.9411 57.5803C19.0799 57.5962 19.2195 57.6123 19.3598 57.6284C19.6408 57.6606 19.925 57.6931 20.2121 57.7259C22.5113 57.9728 25.031 58.0754 27.6995 57.9395C30.3676 57.8077 33.1805 57.4158 36.0416 56.7306C36.2203 56.6869 36.3993 56.6432 36.5787 56.5993L36.8482 56.5333L36.9832 56.5002L37.0507 56.4836C37.0704 56.478 37.0544 56.4841 37.1035 56.4691L37.1355 56.4601C37.3067 56.4125 37.4782 56.3649 37.6501 56.3172C37.8208 56.2703 37.9924 56.2229 38.1802 56.1643C38.5473 56.0534 38.9185 55.9423 39.2746 55.8225C39.6357 55.7077 39.9955 55.5818 40.356 55.4532C41.8003 54.9441 43.235 54.3175 44.6471 53.5884C46.0606 52.8624 47.4396 52.0045 48.7525 51.0196C49.0841 50.7785 49.3999 50.5124 49.7244 50.2576L50.1961 49.8539L50.4319 49.6513L50.6783 49.4244L51.0928 49.0428L51.1447 48.9951L51.2029 48.9373L51.3196 48.8207L51.5528 48.5867C51.8745 48.2716 52.147 47.9648 52.4325 47.6543C53.5588 46.4045 54.5499 45.022 55.4226 43.5514C55.8463 42.8083 56.2442 42.0454 56.5825 41.2495C56.938 40.4618 57.2187 39.6364 57.4756 38.8028C57.7065 37.9605 57.9092 37.1057 58.0254 36.2328L58.0721 35.9061L58.0955 35.7427L58.1168 35.4772L58.1625 34.9308L58.1859 34.6581L58.2015 34.5219L58.2169 34.4538C58.2188 34.4299 58.2409 34.392 58.2385 34.3629C58.2334 34.2204 58.2274 34.0824 58.2212 33.9399Z" stroke="black" stroke-opacity="0.2" stroke-width="2" mask="url(#path-3-inside-1_2_158)"/>
</g>
<path d="M104.877 28.3054C103.77 28.8587 101.557 29.4118 98.7215 29.4118C92.1514 29.4118 87.2064 25.2623 87.2064 17.6203C87.2064 10.324 92.1514 5.37903 99.3785 5.37903C102.283 5.37903 104.116 6.00136 104.911 6.41625L104.185 8.87142C103.044 8.31808 101.419 7.90296 99.4823 7.90296C94.0186 7.90296 90.3878 11.3956 90.3878 17.516C90.3878 23.2215 93.6727 26.887 99.3439 26.887C101.177 26.887 103.044 26.5067 104.254 25.9187L104.877 28.3054Z" fill="black"/>
<path d="M127.837 17.1708C127.837 25.1933 122.962 29.4464 117.014 29.4464C110.859 29.4464 106.536 24.6745 106.536 17.6205C106.536 10.2204 111.135 5.37924 117.36 5.37924C123.722 5.37924 127.837 10.255 127.837 17.1708ZM109.752 17.5513C109.752 22.5306 112.449 26.9915 117.187 26.9915C121.959 26.9915 124.656 22.5999 124.656 17.3092C124.656 12.6755 122.235 7.83442 117.221 7.83442C112.242 7.83442 109.752 12.4335 109.752 17.5513Z" fill="black"/>
<path d="M151.386 18.8308C151.213 15.5805 151.006 11.673 151.04 8.76829H150.937C150.141 11.5001 149.173 14.4048 147.997 17.6208L143.883 28.9282H141.6L137.831 17.8282C136.725 14.543 135.791 11.5347 135.134 8.76851H135.065C134.996 11.6732 134.823 15.5807 134.615 19.0733L133.993 29.0666H131.123L132.748 5.75999H136.587L140.563 17.033C141.531 19.9029 142.327 22.4619 142.915 24.8827H143.018C143.606 22.5311 144.436 19.9723 145.474 17.033L149.623 5.75999H153.461L154.914 29.0666H151.974L151.386 18.8308Z" fill="black"/>
<path d="M159.547 6.0362C160.999 5.79438 162.901 5.5867 165.321 5.5867C168.295 5.5867 170.474 6.27825 171.857 7.52314C173.137 8.62959 173.897 10.3242 173.897 12.3989C173.897 14.5084 173.275 16.168 172.099 17.3785C170.508 19.0729 167.915 19.9373 164.976 19.9373C164.076 19.9373 163.247 19.9026 162.555 19.7296V29.0662H159.547L159.547 6.0362ZM162.555 17.2744C163.212 17.4475 164.042 17.5164 165.045 17.5164C168.676 17.5164 170.889 15.7531 170.889 12.5371C170.889 9.4596 168.711 7.97242 165.391 7.97242C164.077 7.97242 163.074 8.07601 162.555 8.21447V17.2744Z" fill="black"/>
<path d="M178.808 21.7355L176.387 29.0664H173.275L181.193 5.75975H184.824L192.778 29.0664H189.562L187.072 21.7355H178.808ZM186.45 19.3839L184.168 12.6753C183.649 11.154 183.303 9.77063 182.957 8.4219H182.888C182.542 9.80525 182.162 11.223 181.712 12.6407L179.43 19.3837H186.45V19.3839Z" fill="black"/>
<path d="M196.202 29.0662V5.75951H199.487L206.956 17.5513C208.685 20.2831 210.033 22.7383 211.14 25.1243L211.209 25.0897C210.933 21.9775 210.863 19.1418 210.863 15.5112V5.75975H213.699V29.0664H210.656L203.256 17.2402C201.631 14.6468 200.074 11.984 198.899 9.45982L198.795 9.49419C198.968 12.4335 199.037 15.2346 199.037 19.1072V29.0662H196.202Z" fill="black"/>
<path d="M223.9 29.0662V19.1765L216.535 5.75951H219.958L223.243 12.1914C224.143 13.9548 224.834 15.3728 225.56 16.9979H225.629C226.287 15.4764 227.082 13.9548 227.981 12.1914L231.335 5.75951H234.758L226.944 19.1418V29.0662H223.9Z" fill="black"/>
<path d="M86.7903 48.7113C86.8375 47.9082 86.8848 46.9162 86.8848 46.066V31.9407H87.995V39.4758H88.0422C88.7981 38.0113 90.1915 37.1137 92.1993 37.1137C95.0574 37.1137 97.0416 39.4992 97.0416 42.9244C97.0416 46.9636 94.4669 48.9712 91.9869 48.9712C90.1681 48.9712 88.8217 48.2389 87.9241 46.6563H87.8768L87.806 48.7113H86.7903ZM87.995 44.3417C87.995 44.6015 88.0422 44.885 88.0894 45.1684C88.5855 46.8928 90.05 48.0266 91.8215 48.0266C94.4199 48.0266 95.908 45.9007 95.908 42.9481C95.908 40.35 94.4907 38.0349 91.916 38.0349C90.2626 38.0349 88.68 39.1923 88.1367 41.082C88.0658 41.3654 87.995 41.6723 87.995 42.0739V44.3417Z" fill="black"/>
<path d="M108.639 45.9479C108.639 46.9398 108.686 47.8374 108.734 48.7113H107.694L107.624 46.7036H107.576C107.009 47.7429 105.71 48.9712 103.679 48.9712C102.238 48.9712 99.8286 48.2625 99.8286 43.9635V37.3735H100.939V43.7509C100.939 46.2075 101.718 47.9791 103.962 47.9791C105.616 47.9791 106.82 46.8217 107.293 45.6879C107.411 45.3335 107.529 44.8847 107.529 44.4359V37.3735H108.639V45.9479Z" fill="black"/>
<path d="M111.993 47.2232C112.607 47.6011 113.529 48.0027 114.544 48.0027C116.339 48.0027 117.19 47.0342 117.19 45.8534C117.19 44.6018 116.434 43.9401 114.804 43.2787C112.938 42.5701 111.922 41.5544 111.922 40.1846C111.922 38.5548 113.198 37.1139 115.418 37.1139C116.457 37.1139 117.331 37.421 117.922 37.8225L117.473 38.7435C117.095 38.4601 116.363 38.0585 115.229 38.0585C113.788 38.0585 113.032 38.9797 113.032 40.019C113.032 41.2001 113.835 41.7195 115.371 42.3575C117.213 43.0659 118.3 43.9874 118.3 45.7115C118.3 47.6484 116.788 48.9475 114.473 48.9475C113.363 48.9475 112.347 48.6405 111.591 48.168L111.993 47.2232Z" fill="black"/>
<path d="M122.74 34.1377C122.74 34.6573 122.386 35.1061 121.796 35.1061C121.276 35.1061 120.922 34.6573 120.922 34.1377C120.922 33.6178 121.323 33.1456 121.843 33.1456C122.386 33.1456 122.74 33.5944 122.74 34.1377ZM121.276 48.7113V37.3735H122.386V48.7113H121.276Z" fill="black"/>
<path d="M126.213 40.0899C126.213 39.0506 126.166 38.2713 126.118 37.3737H127.158L127.252 39.4285H127.299C127.914 38.153 129.331 37.1139 131.197 37.1139C132.283 37.1139 135.142 37.6572 135.142 41.9087V48.7116H134.031V42.0032C134.031 39.9482 133.228 38.0821 130.89 38.0821C129.284 38.0821 127.937 39.2159 127.489 40.6804C127.394 40.9639 127.323 41.3416 127.323 41.6961V48.7113H126.213V40.0899H126.213Z" fill="black"/>
<path d="M139.039 42.9244C139.039 46.5621 141.023 47.9791 143.362 47.9791C145.015 47.9791 145.865 47.6484 146.503 47.3413L146.787 48.2389C146.361 48.4751 145.204 48.9473 143.22 48.9473C139.96 48.9473 137.929 46.5852 137.929 43.2549C137.929 39.4755 140.102 37.1134 143.031 37.1134C146.739 37.1134 147.448 40.6091 147.448 42.239C147.448 42.546 147.448 42.735 147.401 42.9242H139.039V42.9244ZM146.267 42.0268C146.29 40.444 145.629 38.0349 142.889 38.0349C140.385 38.0349 139.299 40.2789 139.11 42.0268H146.267Z" fill="black"/>
<path d="M149.857 47.2232C150.471 47.6011 151.392 48.0027 152.408 48.0027C154.203 48.0027 155.054 47.0342 155.054 45.8534C155.054 44.6018 154.298 43.9401 152.668 43.2787C150.802 42.5701 149.786 41.5544 149.786 40.1846C149.786 38.5548 151.062 37.1139 153.282 37.1139C154.321 37.1139 155.195 37.421 155.786 37.8225L155.337 38.7435C154.959 38.4601 154.227 38.0585 153.093 38.0585C151.652 38.0585 150.896 38.9797 150.896 40.019C150.896 41.2001 151.699 41.7195 153.235 42.3575C155.077 43.0659 156.164 43.9874 156.164 45.7115C156.164 47.6484 154.652 48.9475 152.337 48.9475C151.227 48.9475 150.211 48.6405 149.455 48.168L149.857 47.2232Z" fill="black"/>
<path d="M158.667 47.2232C159.281 47.6011 160.202 48.0027 161.218 48.0027C163.013 48.0027 163.864 47.0342 163.864 45.8534C163.864 44.6018 163.108 43.9401 161.478 43.2787C159.612 42.5701 158.596 41.5544 158.596 40.1846C158.596 38.5548 159.872 37.1139 162.092 37.1139C163.131 37.1139 164.005 37.421 164.596 37.8225L164.147 38.7435C163.769 38.4601 163.037 38.0585 161.903 38.0585C160.462 38.0585 159.706 38.9797 159.706 40.019C159.706 41.2001 160.51 41.7195 162.045 42.3575C163.887 43.0659 164.974 43.9874 164.974 45.7115C164.974 47.6484 163.462 48.9475 161.147 48.9475C160.037 48.9475 159.021 48.6405 158.266 48.168L158.667 47.2232Z" fill="black"/>
<path d="M174.682 34.0904V37.3737H177.918V38.2713H174.682V45.6409C174.682 47.0817 175.131 48.0029 176.335 48.0029C176.926 48.0029 177.351 47.9087 177.634 47.814L177.776 48.688C177.398 48.8294 176.878 48.9475 176.193 48.9475C175.367 48.9475 174.682 48.6879 174.256 48.1444C173.737 47.5539 173.548 46.6091 173.548 45.4516V38.2711H171.635V37.3735H173.548V34.4445L174.682 34.0904Z" fill="black"/>
<path d="M186.61 48.7113L186.445 47.0815H186.374C185.831 47.9552 184.579 48.9712 182.76 48.9712C180.492 48.9712 179.429 47.3649 179.429 45.8532C179.429 43.2313 181.744 41.6489 186.35 41.6961V41.4127C186.35 40.2786 186.138 38.0349 183.445 38.0585C182.453 38.0585 181.414 38.3181 180.611 38.9088L180.256 38.0821C181.272 37.3971 182.547 37.1137 183.563 37.1137C186.846 37.1137 187.461 39.5702 187.461 41.6014V46.0185C187.461 46.9161 187.508 47.8371 187.626 48.7113H186.61ZM186.35 42.641C183.87 42.5699 180.61 42.948 180.61 45.6644C180.61 47.2943 181.697 48.0265 182.878 48.0265C184.768 48.0265 185.831 46.8691 186.232 45.7589C186.303 45.5227 186.35 45.2867 186.35 45.0739V42.641Z" fill="black"/>
<path d="M200.263 37.3737C200.216 38.2241 200.168 39.1217 200.168 40.3025V47.0578C200.168 49.9632 199.578 51.4041 198.633 52.3017C197.594 53.2938 196.059 53.6481 194.783 53.6481C193.484 53.6481 192.043 53.3174 191.193 52.6796L191.594 51.7582C192.374 52.2781 193.484 52.703 194.948 52.703C197.334 52.703 199.058 51.4747 199.058 48.1206V46.5146H199.011C198.421 47.6718 197.098 48.7113 195.067 48.7113C192.208 48.7113 190.201 46.2313 190.201 43.1368C190.201 39.1923 192.799 37.1137 195.303 37.1137C197.547 37.1137 198.657 38.342 199.129 39.2868H199.176L199.223 37.3735H200.263V37.3737ZM199.058 41.7198C199.058 41.3182 199.011 40.9641 198.917 40.6332C198.444 39.2632 197.239 38.0349 195.397 38.0349C192.988 38.0349 191.334 40.019 191.334 43.0187C191.334 45.5697 192.681 47.7665 195.35 47.7665C196.861 47.7665 198.279 46.8453 198.846 45.2157C198.987 44.8377 199.058 44.4123 199.058 44.011V41.7198Z" fill="black"/>
<path d="M203.995 31.9407H205.105V48.7113H203.995V31.9407Z" fill="black"/>
<path d="M210.467 34.1377C210.467 34.6573 210.112 35.1061 209.522 35.1061C209.002 35.1061 208.648 34.6573 208.648 34.1377C208.648 33.6178 209.05 33.1456 209.569 33.1456C210.112 33.1456 210.467 33.5944 210.467 34.1377ZM209.002 48.7113V37.3735H210.112V48.7113H209.002Z" fill="black"/>
<path d="M213.939 40.0899C213.939 39.0506 213.892 38.2713 213.844 37.3737H214.884L214.978 39.4285H215.025C215.64 38.153 217.057 37.1139 218.923 37.1139C220.009 37.1139 222.867 37.6572 222.867 41.9087V48.7116H221.757V42.0032C221.757 39.9482 220.954 38.0821 218.616 38.0821C217.009 38.0821 215.663 39.2159 215.214 40.6804C215.12 40.9639 215.049 41.3416 215.049 41.6961V48.7113H213.939L213.939 40.0899Z" fill="black"/>
<path d="M226.765 42.9244C226.765 46.5621 228.749 47.9791 231.087 47.9791C232.741 47.9791 233.591 47.6484 234.229 47.3413L234.513 48.2389C234.088 48.4751 232.93 48.9473 230.946 48.9473C227.686 48.9473 225.655 46.5852 225.655 43.2549C225.655 39.4755 227.828 37.1134 230.757 37.1134C234.465 37.1134 235.174 40.6091 235.174 42.239C235.174 42.546 235.174 42.735 235.127 42.9242H226.765V42.9244ZM233.993 42.0268C234.017 40.444 233.355 38.0349 230.615 38.0349C228.111 38.0349 227.025 40.2789 226.836 42.0268H233.993Z" fill="black"/>
<defs>
<filter id="filter0_d_2_158" x="0" y="16.2953" width="62.2398" height="49.7047" filterUnits="userSpaceOnUse" color-interpolation-filters="sRGB">
<feFlood flood-opacity="0" result="BackgroundImageFix"/>
<feColorMatrix in="SourceAlpha" type="matrix" values="0 0 0 0 0 0 0 0 0 0 0 0 0 0 0 0 0 0 127 0" result="hardAlpha"/>
<feOffset dy="4"/>
<feGaussianBlur stdDeviation="2"/>
<feComposite in2="hardAlpha" operator="out"/>
<feColorMatrix type="matrix" values="0 0 0 0 0 0 0 0 0 0 0 0 0 0 0 0 0 0 0.25 0"/>
<feBlend mode="normal" in2="BackgroundImageFix" result="effect1_dropShadow_2_158"/>
<feBlend mode="normal" in="SourceGraphic" in2="effect1_dropShadow_2_158" result="shape"/>
</filter>
</defs>
</svg>
